<?xml version="1.0" encoding="UTF-8"?><!-- Generator: Adobe Illustrator 12.0.0, SVG Export Plug-In . SVG Version: 6.00 Build 51448)  --><!DOCTYPE svg PUBLIC "-//W3C//DTD SVG 1.1//EN" "http://www.w3.org/Graphics/SVG/1.1/DTD/svg11.dtd">
<svg xmlns="http://www.w3.org/2000/svg" xmlns:xlink="http://www.w3.org/1999/xlink" version="1.1" width="343.666" height="211.165" viewBox="0 0 343.666 211.165" overflow="visible" enable-background="new 0 0 343.666 211.165" xml:space="preserve" preserveAspectRatio="xMidYMid meet" zoomAndPan="magnify" contentScriptType="application/ecmascript" contentStyleType="text/css">
<g id="Layer_1">
	<line fill="#8F0000" stroke="#8F0000" stroke-linecap="round" x1="87.335" y1="41.502" x2="233.64" y2="41.502"/>
	<polygon fill="#8F0000" stroke="#8F0000" points="233.429,41.522 226.642,42.975 219.854,44.428 219.854,41.522 219.854,38.616    226.642,40.069  "/>
	<g>
		<polygon fill="#00A0C6" stroke="#003CFF" stroke-width="0.25" stroke-linecap="round" stroke-linejoin="round" points="    177.656,31.328 201.655,28.816 203.886,28.816 203.886,55.324 201.934,55.324 178.496,53.371   "/>
		<polyline fill="#00A0C6" stroke="#003CFF" stroke-width="0.25" stroke-linecap="round" stroke-linejoin="round" points="    141.663,29.653 141.663,54.768 169.568,56.999 171.521,56.999 171.521,27.141 169.568,27.141 142.219,29.653   "/>
		<path fill="#00A33D" stroke="#003CFF" stroke-width="0.25" stroke-linecap="round" stroke-linejoin="round" d="M172.774,36.626    l7.817-3.902v2.23h8.65c0,0,3.064,3.346,0.556,3.068c-2.508-0.278-9.206,0-9.206,0v3.349L172.774,36.626z"/>
		<polygon fill="#00A33D" stroke="#003CFF" stroke-width="0.25" stroke-linecap="round" stroke-linejoin="round" points="    171.663,46.815 179.894,46.673 179.894,43.609 188.401,47.927 180.028,52.395 180.028,49.324 171.663,49.324   "/>
		<line fill="#00A0C6" stroke="#003CFF" stroke-width="0.5" x1="202.774" y1="55.182" x2="202.774" y2="28.396"/>
		<line fill="#00A0C6" stroke="#003CFF" stroke-width="0.5" x1="170.544" y1="56.856" x2="170.544" y2="27.419"/>
	</g>
	<line fill="#8F0000" stroke="#8F0000" stroke-linecap="round" x1="255.762" y1="120.304" x2="113.457" y2="120.304"/>
	<polygon fill="#8F0000" stroke="#8F0000" points="106.335,120.284 113.122,118.831 119.909,117.378 119.909,120.284    119.909,123.19 113.122,121.737  "/>
	<g>
		<polygon fill="#00A0C6" stroke="#003CFF" stroke-width="0.25" stroke-linecap="round" stroke-linejoin="round" points="    166.107,130.479 142.108,132.99 139.878,132.99 139.878,106.482 141.83,106.482 165.268,108.436   "/>
		<polyline fill="#00A0C6" stroke="#003CFF" stroke-width="0.25" stroke-linecap="round" stroke-linejoin="round" points="    202.101,132.153 202.101,107.038 174.195,104.808 172.243,104.808 172.243,134.665 174.195,134.665 201.545,132.153   "/>
		<path fill="#00A33D" stroke="#003CFF" stroke-width="0.25" stroke-linecap="round" stroke-linejoin="round" d="M170.989,125.18    l-7.817,3.902v-2.23h-8.65c0,0-3.064-3.346-0.556-3.068c2.508,0.278,9.206,0,9.206,0v-3.349L170.989,125.18z"/>
		<polygon fill="#00A33D" stroke="#003CFF" stroke-width="0.25" stroke-linecap="round" stroke-linejoin="round" points="    172.101,114.99 163.87,115.133 163.87,118.197 155.362,113.879 163.735,109.411 163.735,112.482 172.101,112.482   "/>
		<line fill="#00A0C6" stroke="#003CFF" stroke-width="0.5" x1="140.989" y1="106.625" x2="140.989" y2="133.41"/>
		<line fill="#00A0C6" stroke="#003CFF" stroke-width="0.5" x1="173.22" y1="104.95" x2="173.22" y2="134.387"/>
	</g>
	<g>
		<path fill="#003CFF" stroke="#000000" stroke-width="0.25" stroke-linecap="round" stroke-linejoin="round" d="M87.972,14.716    v43.243c0,6.17-9.706,11.174-21.686,11.174c-11.971,0-21.676-5.003-21.676-11.174V14.716H87.972z"/>
		<path fill="#003CFF" stroke="#015353" stroke-width="0.25" stroke-linecap="round" stroke-linejoin="round" d="M44.61,14.887    c0,4.424,9.706,8.012,21.676,8.012c11.98,0,21.686-3.588,21.686-8.012c0-4.421-9.706-8.005-21.686-8.005    C54.316,6.882,44.61,10.466,44.61,14.887z"/>
		<polygon fill="#8C8C8C" stroke="#003CFF" stroke-width="0.25" stroke-linecap="round" stroke-linejoin="round" points="    47.51,41.938 59.808,32.604 59.808,38.349 72.993,38.349 72.993,33.085 85.512,41.938 73.441,51.271 73.441,45.047 59.808,45.047     59.808,51.031   "/>
	</g>
	<g>
		<path fill="#003CFF" stroke="#000000" stroke-width="0.25" stroke-linecap="round" stroke-linejoin="round" d="M87.972,94.716    v43.244c0,6.17-9.706,11.174-21.686,11.174c-11.971,0-21.676-5.004-21.676-11.174V94.716H87.972z"/>
		<path fill="#003CFF" stroke="#015353" stroke-width="0.25" stroke-linecap="round" stroke-linejoin="round" d="M44.61,94.888    c0,4.424,9.706,8.012,21.676,8.012c11.98,0,21.686-3.588,21.686-8.012c0-4.422-9.706-8.006-21.686-8.006    C54.316,86.882,44.61,90.466,44.61,94.888z"/>
		<polygon fill="#8C8C8C" stroke="#003CFF" stroke-width="0.25" stroke-linecap="round" stroke-linejoin="round" points="    47.51,121.938 59.808,112.604 59.808,118.349 72.993,118.349 72.993,113.085 85.512,121.938 73.441,131.271 73.441,125.047     59.808,125.047 59.808,131.031   "/>
	</g>
	<g>
		<path fill="#003CFF" stroke="#000000" stroke-width="0.25" stroke-linecap="round" stroke-linejoin="round" d="M297.973,14.716    v43.243c0,6.17-9.706,11.174-21.686,11.174c-11.971,0-21.677-5.003-21.677-11.174V14.716H297.973z"/>
		<path fill="#003CFF" stroke="#015353" stroke-width="0.25" stroke-linecap="round" stroke-linejoin="round" d="M254.61,14.887    c0,4.424,9.706,8.012,21.677,8.012c11.979,0,21.686-3.588,21.686-8.012c0-4.421-9.706-8.005-21.686-8.005    C264.316,6.882,254.61,10.466,254.61,14.887z"/>
		<polygon fill="#8C8C8C" stroke="#003CFF" stroke-width="0.25" stroke-linecap="round" stroke-linejoin="round" points="    257.51,41.938 269.808,32.604 269.808,38.349 282.993,38.349 282.993,33.085 295.512,41.938 283.441,51.271 283.441,45.047     269.808,45.047 269.808,51.031   "/>
	</g>
	<g>
		<path fill="#003CFF" stroke="#000000" stroke-width="0.25" stroke-linecap="round" stroke-linejoin="round" d="M297.973,94.716    v43.244c0,6.17-9.706,11.174-21.686,11.174c-11.971,0-21.677-5.004-21.677-11.174V94.716H297.973z"/>
		<path fill="#003CFF" stroke="#015353" stroke-width="0.25" stroke-linecap="round" stroke-linejoin="round" d="M254.61,94.888    c0,4.424,9.706,8.012,21.677,8.012c11.979,0,21.686-3.588,21.686-8.012c0-4.422-9.706-8.006-21.686-8.006    C264.316,86.882,254.61,90.466,254.61,94.888z"/>
		<polygon fill="#8C8C8C" stroke="#003CFF" stroke-width="0.25" stroke-linecap="round" stroke-linejoin="round" points="    257.51,121.938 269.808,112.604 269.808,118.349 282.993,118.349 282.993,113.085 295.512,121.938 283.441,131.271     283.441,125.047 269.808,125.047 269.808,131.031   "/>
	</g>
	
		<rect x="0.5" y="0.5" fill="none" stroke="#000000" stroke-linejoin="round" stroke-miterlimit="10" width="131.333" height="208"/>
	
		<rect x="211.833" y="0.5" fill="none" stroke="#000000" stroke-linejoin="round" stroke-miterlimit="10" width="131.333" height="208"/>
</g>
<g id="text">
	<rect x="31.167" y="73.499" fill="none" width="62.667" height="15.333"/>
	<text transform="matrix(1 0 0 1 35.002 79.9609)" font-family="'Helvetica'" font-size="9">vol1 (primary)</text>
	<rect x="235.834" y="71.499" fill="none" width="77.334" height="15.333"/>
	<text transform="matrix(1 0 0 1 241.2422 77.9609)" font-family="'Helvetica'" font-size="9">vol1 (secondary)</text>
	<rect x="27.834" y="152.17" fill="none" width="72.667" height="15.333"/>
	<text transform="matrix(1 0 0 1 27.8408 158.5967)" font-family="'Helvetica'" font-size="9">vol2 (secondary)</text>
	<rect x="247.501" y="152.165" fill="none" width="62.667" height="15.333"/>
	<text transform="matrix(1 0 0 1 251.3359 158.627)" font-family="'Helvetica'" font-size="9">vol2 (primary)</text>
	<rect x="1.833" y="179.832" fill="none" width="129.333" height="17.333"/>
	<text transform="matrix(1 0 0 1 11.8223 188.4482)" font-family="'Helvetica'" font-size="12">7-Mode system (vf1)</text>
	<rect x="212.167" y="179.832" fill="none" width="129.334" height="31.333"/>
	<text transform="matrix(1 0 0 1 222.1563 188.4482)" font-family="'Helvetica'" font-size="12">7-Mode system (vf2)</text>
</g>
</svg>